<?xml version="1.0" encoding="UTF-8"?>
<svg width="7px" height="7px" viewBox="0 0 7 7" version="1.1" xmlns="http://www.w3.org/2000/svg" xmlns:xlink="http://www.w3.org/1999/xlink">
    <!-- Generator: Sketch 41.2 (35397) - http://www.bohemiancoding.com/sketch -->
    <title>bullet</title>
    <desc>Created with Sketch.</desc>
    <defs></defs>
    <g id="Page-1" stroke="none" stroke-width="1" fill="none" fill-rule="evenodd">
        <g id="bullet" fill="#4A4A4A">
            <g id="Page-1">
                <g id="bullet">
                    <g id="Page-1">
                        <g id="Fill-1">
                            <path d="M3.68960343,3.34871741 C3.66352626,3.34871741 3.64070874,3.32107447 3.62278068,3.26732429 C3.6032228,3.21357412 3.60648245,3.1797883 3.63255962,3.16903827 L6.04958747,2.60696504 C6.16530491,2.58392925 6.30872935,2.65303662 6.48149062,2.81582285 C6.65588171,2.97707337 6.79604651,3.15368107 6.90524467,3.3395031 C7.01281297,3.52686084 7.02911125,3.62053971 6.95250955,3.62053971 L3.68960343,3.34871741 Z M3.34408091,3.74646869 C3.33104232,3.72189718 3.3506002,3.68964708 3.40112472,3.64818266 C3.45164924,3.60518252 3.48424571,3.5959682 3.49728429,3.62053971 L4.82233058,5.60929608 C4.88589369,5.70758209 4.8598165,5.85654687 4.74409906,6.06233324 C4.63001144,6.26658389 4.49310627,6.44779874 4.33175379,6.60444211 C4.17203111,6.76108547 4.08565048,6.81022848 4.07261189,6.75033545 L3.34408091,3.74646869 Z M3.38156684,0.562922792 C3.38156684,0.455422446 3.49402465,0.346386384 3.71731043,0.237350321 C3.94222603,0.129849977 4.16551182,0.0561354562 4.39042743,0.0208139146 C4.61371321,-0.0160433461 4.71313242,-0.00375759256 4.68868509,0.0561354562 L3.40112472,2.87878734 C3.38808613,2.91410888 3.35223003,2.93253751 3.29518621,2.93253751 C3.2381424,2.93253751 3.20880558,2.91410888 3.20880558,2.87878734 L3.38156684,0.562922792 Z M0.483741142,2.33667846 C0.317499174,2.27524969 0.234378189,2.01110599 0.234378189,1.5396402 C0.234378189,1.37071109 0.245786952,1.22942492 0.271864124,1.11424598 C0.297941295,1.00060276 0.33053776,0.960674062 0.368023694,0.997531323 L2.84372518,3.04157357 C2.88284094,3.05385933 2.88936023,3.08610943 2.86328306,3.14139532 C2.83883571,3.1951455 2.81275854,3.21664556 2.78668137,3.20435981 L0.483741142,2.33667846 Z M1.0981845,5.53711727 C0.956389879,5.53711727 0.790147912,5.51101003 0.599458593,5.45572415 C0.407139451,5.40197399 0.249046598,5.34208092 0.128439679,5.27604502 C0.00620293726,5.21000908 -0.0280233506,5.16393751 0.0225011695,5.13936599 L2.82579712,3.56525382 L2.86328306,3.54836091 C2.88936023,3.54836091 2.91706722,3.56525382 2.94966369,3.60211108 C2.98226015,3.63743262 2.99203909,3.66353985 2.9790005,3.67428988 L1.38503339,5.44650985 C1.33450887,5.50793859 1.2383493,5.53711727 1.0981845,5.53711727 L1.0981845,5.53711727 Z" id="Shape"></path>
                        </g>
                    </g>
                </g>
            </g>
        </g>
    </g>
</svg>