<?xml version="1.0" encoding="UTF-8"?>
<svg width="87px" height="22px" viewBox="0 0 87 22" version="1.1" xmlns="http://www.w3.org/2000/svg" xmlns:xlink="http://www.w3.org/1999/xlink">
    <!-- Generator: Sketch 41.2 (35397) - http://www.bohemiancoding.com/sketch -->
    <title>logo</title>
    <desc>Created with Sketch.</desc>
    <defs></defs>
    <g id="Page-1" stroke="none" stroke-width="1" fill="none" fill-rule="evenodd">
        <g id="logo">
            <g id="Group">
                <path d="M66.6,5.1 C61.9,5.1 58.2,8.9 58.2,13.5 C58.2,18.2 62,21.9 66.6,21.9 C71.3,21.9 75,18.1 75,13.5 C75.1,8.9 71.3,5.1 66.6,5.1 Z M66.6,18.7 C63.7,18.7 61.4,16.4 61.4,13.5 C61.4,10.6 63.7,8.3 66.6,8.3 C69.5,8.3 71.8,10.6 71.8,13.5 C71.8,16.4 69.5,18.7 66.6,18.7 Z" id="Shape" fill="#000000"></path>
                <path d="M14.3,14.7 L17.6,14.7 C17.7,14.3 17.7,13.9 17.7,13.6 C17.7,8.9 13.9,5.2 9.3,5.2 C4.7,5.2 0.9,9 0.9,13.6 C0.9,18.3 4.7,22 9.3,22 C11.9,22 14.2,20.8 15.8,19 L13.2,17 C12.2,18.1 10.9,18.8 9.3,18.8 C6.8,18.8 4.8,17.1 4.2,14.8 L4.2,14.8 L4.2,14.8 L14.3,14.8 L14.3,14.7 Z M9.2,8.3 C11.4,8.3 13.3,9.7 14,11.6 L4.3,11.6 C5.1,9.7 7,8.3 9.2,8.3 Z" id="Shape" fill="#000000"></path>
                <path d="M52,0 L52,6.7 C50.6,5.7 48.9,5.1 47,5.1 C42.3,5.1 38.6,8.9 38.6,13.5 C38.6,18.2 42.4,21.9 47,21.9 C48.9,21.9 50.6,21.3 52,20.3 L52,21.5 L55.4,21.5 L55.4,0 L52,0 Z M47,18.7 C44.1,18.7 41.8,16.4 41.8,13.5 C41.8,10.6 44.1,8.3 47,8.3 C49.9,8.3 52.2,10.6 52.2,13.5 C52.2,16.4 49.9,18.7 47,18.7 Z" id="Shape" fill="#000000"></path>
                <path d="M81,6.9 L81,5.5 L77.8,5.5 L77.8,21.6 L81,21.6 L81,12.7 C81,11.8 81.3,10.9 82,10.2 C83.1,9.1 84.6,8.3 86.2,8.3 L86.2,5.1 C84.3,5.1 82.5,5.8 81,6.9 Z" id="Shape" fill="#000000"></path>
                <path d="M35.8,13.3 C35.7,8.7 32.7,5.1 28.1,5.1 C26.1,5.1 25.1,5.8 23.6,6.9 L23.6,5.5 L20.4,5.5 L20.4,8.3 L20.4,21.6 L23.6,21.6 L23.6,15.5 L23.6,13.3 L23.6,13.2 C23.6,11.7 24.2,10.3 25.3,9.4 C26,8.7 26.9,8.4 28.1,8.4 C30.9,8.4 32.4,10.6 32.6,13.3 L32.6,13.3 L32.6,21.6 L35.8,21.6 L35.8,13.3 L35.8,13.3 Z" id="Shape" fill="#000000"></path>
                <rect id="Rectangle-path" fill="#D73642" x="4.5" y="1.3" width="9.1" height="2"></rect>
            </g>
        </g>
    </g>
</svg>