<?xml version="1.0" encoding="UTF-8"?>
<svg width="22px" height="21px" viewBox="0 0 22 21" version="1.1" xmlns="http://www.w3.org/2000/svg" xmlns:xlink="http://www.w3.org/1999/xlink">
    <!-- Generator: Sketch 41.2 (35397) - http://www.bohemiancoding.com/sketch -->
    <title>quotes</title>
    <desc>Created with Sketch.</desc>
    <defs>
        <polygon id="path-1" points="0 0.7825125 0 13.7487625 10.9018647 13.7487625 10.9018647 0.7825125"></polygon>
        <polygon id="path-3" points="10.9791176 15.306225 10.9791176 0.1595 0.0771176471 0.1595 0.0771176471 15.306225"></polygon>
    </defs>
    <g id="Page-1" stroke="none" stroke-width="1" fill="none" fill-rule="evenodd">
        <g id="quotes">
            <g id="Page-1">
                <g id="Group">
                    <g id="Group-3" transform="translate(0.000000, 7.091188)">
                        <g id="Fill-1-Clipped">
                            <mask id="mask-2" fill="white">
                                <use xlink:href="#path-1"></use>
                            </mask>
                            <g id="path-1"></g>
                            <path d="M6.62115882,11.0785125 C5.4901,9.6553875 4.75004118,7.6025125 4.39827647,4.9198875 L10.9018647,4.9198875 L10.9018647,0.7825125 L-0.000135294118,0.7825125 C0.187923529,4.9762625 1.14174706,8.1841375 2.85727647,10.4116375 C4.56874706,12.6377625 7.10957059,13.7487625 10.4716294,13.7487625 C10.6191,13.7487625 10.7557471,13.7363875 10.9018647,13.7308875 L10.9018647,13.1863875 C9.09568824,13.0860125 7.66427647,12.3902625 6.62115882,11.0785125" id="Fill-1" fill="#181110" mask="url(#mask-2)"></path>
                        </g>
                    </g>
                    <g id="Group-6" transform="translate(10.823529, 0.216188)">
                        <g id="Fill-4-Clipped" transform="translate(0.000000, 0.000000)">
                            <mask id="mask-4" fill="white">
                                <use xlink:href="#path-3"></use>
                            </mask>
                            <g id="path-3"></g>
                            <path d="M4.35782353,12.184975 C5.48888235,10.5226 6.23029412,8.125975 6.58205882,4.993725 L0.0771176471,4.993725 L0.0771176471,0.159225 L10.9804706,0.159225 C10.7897059,5.0556 9.83723529,8.805225 8.12170588,11.406725 C6.41158824,14.002725 3.87076471,15.306225 0.507352941,15.306225 C0.359882353,15.306225 0.223235294,15.289725 0.0771176471,15.284225 L0.0771176471,14.472975 C1.88329412,14.35335 3.31605882,13.716725 4.35782353,12.184975" id="Fill-4" fill="#181110" mask="url(#mask-4)"></path>
                        </g>
                    </g>
                </g>
            </g>
        </g>
    </g>
</svg>